HIERARCHY
ROOT Hips
{
	OFFSET 0.000000 71.427986 0.000000
	CHANNELS 6 Xposition Yposition Zposition Xrotation Yrotation Zrotation
	JOINT Pelvis
	{
		OFFSET 0.000000 0.000000 0.000000
		CHANNELS 3 Xrotation Yrotation Zrotation
		JOINT LeftUpLeg
		{
			OFFSET 6.797100 -2.508499 -1.318700
			CHANNELS 3 Xrotation Yrotation Zrotation
			JOINT LeftLeg
			{
				OFFSET 0.069008 -29.241863 0.690200
				CHANNELS 3 Xrotation Yrotation Zrotation
				JOINT LeftFoot
				{
					OFFSET -0.069008 -29.568123 -0.266800
					CHANNELS 3 Xrotation Yrotation Zrotation
					JOINT LeftToeBase
					{
						OFFSET 3.145500 -8.631000 16.059900
						CHANNELS 3 Xrotation Yrotation Zrotation
						End Site
						{
							OFFSET 0.000000 18.501587 0.000000
						}
					}
				}
			}
			JOINT Left_ShortSleeve
			{
				OFFSET 0.265923 -10.480953 1.153800
				CHANNELS 3 Xrotation Yrotation Zrotation
				End Site
				{
					OFFSET 1.725763 19.823879 0.000000
				}
			}
		}
		JOINT RightUpLeg
		{
			OFFSET -6.797100 -2.508499 -1.318700
			CHANNELS 3 Xrotation Yrotation Zrotation
			JOINT RightLeg
			{
				OFFSET -0.082453 -29.241932 0.688000
				CHANNELS 3 Xrotation Yrotation Zrotation
				JOINT RightFoot
				{
					OFFSET 0.082453 -29.568058 -0.264600
					CHANNELS 3 Xrotation Yrotation Zrotation
					JOINT RightToeBase
					{
						OFFSET -3.115300 -8.682800 16.113400
						CHANNELS 3 Xrotation Yrotation Zrotation
						End Site
						{
							OFFSET 0.000000 18.567114 0.000000
						}
					}
				}
			}
			JOINT Right_ShortSleeve
			{
				OFFSET -0.265923 -10.480953 1.153800
				CHANNELS 3 Xrotation Yrotation Zrotation
				End Site
				{
					OFFSET -1.725766 19.823910 0.000000
				}
			}
		}
	}
	JOINT Spine
	{
		OFFSET 0.000000 13.368103 0.470500
		CHANNELS 3 Xrotation Yrotation Zrotation
		JOINT Spine1
		{
			OFFSET 0.147000 13.837402 0.538800
			CHANNELS 3 Xrotation Yrotation Zrotation
			JOINT Spine2
			{
				OFFSET 0.168000 16.242897 -1.435500
				CHANNELS 3 Xrotation Yrotation Zrotation
				JOINT Neck
				{
					OFFSET 0.217200 18.631500 -1.679100
					CHANNELS 3 Xrotation Yrotation Zrotation
					JOINT Head
					{
						OFFSET 0.000000 6.599396 1.385900
						CHANNELS 3 Xrotation Yrotation Zrotation
						JOINT Hat
						{
							OFFSET -0.532200 27.220596 -10.096100
							CHANNELS 3 Xrotation Yrotation Zrotation
							End Site
							{
								OFFSET 0.000000 22.029861 0.000000
							}
						}
						JOINT HairD
						{
							OFFSET -10.777400 17.437393 -1.325900
							CHANNELS 3 Xrotation Yrotation Zrotation
							JOINT HairD1
							{
								OFFSET -3.290299 -11.051193 1.062200
								CHANNELS 3 Xrotation Yrotation Zrotation
								End Site
								{
									OFFSET 0.000000 11.579437 0.000000
								}
							}
						}
						JOINT HairB
						{
							OFFSET -10.777400 17.437393 1.467900
							CHANNELS 3 Xrotation Yrotation Zrotation
							JOINT HairB1
							{
								OFFSET -1.561200 -12.956299 3.590200
								CHANNELS 3 Xrotation Yrotation Zrotation
								End Site
								{
									OFFSET 0.000000 13.534866 0.000000
								}
							}
						}
						JOINT HairA
						{
							OFFSET 9.713100 17.437393 1.467900
							CHANNELS 3 Xrotation Yrotation Zrotation
							JOINT HairA1
							{
								OFFSET 1.561200 -12.956299 3.590200
								CHANNELS 3 Xrotation Yrotation Zrotation
								End Site
								{
									OFFSET 0.000000 13.534866 0.000000
								}
							}
						}
						JOINT HairC
						{
							OFFSET 9.713100 17.437393 -1.325900
							CHANNELS 3 Xrotation Yrotation Zrotation
							JOINT HairC1
							{
								OFFSET 3.290300 -11.051193 1.062200
								CHANNELS 3 Xrotation Yrotation Zrotation
								End Site
								{
									OFFSET 0.000000 11.579437 0.000000
								}
							}
						}
					}
				}
				JOINT LeftShoulder
				{
					OFFSET 5.101800 15.108002 -2.763700
					CHANNELS 3 Xrotation Yrotation Zrotation
					JOINT LeftArm
					{
						OFFSET 9.825497 2.506317 -1.597400
						CHANNELS 3 Xrotation Yrotation Zrotation
						JOINT LeftForeArm
						{
							OFFSET 21.966244 0.000000 0.000000
							CHANNELS 3 Xrotation Yrotation Zrotation
							JOINT LeftHand
							{
								OFFSET 33.879036 0.000000 0.000000
								CHANNELS 3 Xrotation Yrotation Zrotation
								JOINT LeftHandThumb1
								{
									OFFSET 6.715286 -2.359680 3.363841
									CHANNELS 3 Xrotation Yrotation Zrotation
									JOINT LeftHandThumb2
									{
										OFFSET 2.507072 -1.447464 1.447461
										CHANNELS 3 Xrotation Yrotation Zrotation
										JOINT LeftHandThumb3
										{
											OFFSET 2.898338 -1.673355 1.673357
											CHANNELS 3 Xrotation Yrotation Zrotation
											End Site
											{
												OFFSET -0.295959 3.727692 -0.131651
											}
										}
									}
								}
								JOINT LeftHandIndex1
								{
									OFFSET 14.190811 -0.254547 3.840278
									CHANNELS 3 Xrotation Yrotation Zrotation
									JOINT LeftHandIndex2
									{
										OFFSET 3.551727 0.000000 -0.000000
										CHANNELS 3 Xrotation Yrotation Zrotation
										JOINT LeftHandIndex3
										{
											OFFSET 2.894196 0.000000 0.000000
											CHANNELS 3 Xrotation Yrotation Zrotation
											End Site
											{
												OFFSET -1.000603 2.690872 0.366626
											}
										}
									}
								}
								JOINT LeftHandMiddle1
								{
									OFFSET 13.776489 0.000000 0.000000
									CHANNELS 3 Xrotation Yrotation Zrotation
									JOINT LeftHandMiddle2
									{
										OFFSET 3.438232 0.000000 0.000000
										CHANNELS 3 Xrotation Yrotation Zrotation
										JOINT LeftHandMiddle3
										{
											OFFSET 3.691551 0.000000 0.000000
											CHANNELS 3 Xrotation Yrotation Zrotation
											End Site
											{
												OFFSET -1.082298 3.499527 0.457670
											}
										}
									}
								}
								JOINT LeftHandRing1
								{
									OFFSET 13.966164 -0.268127 -3.067488
									CHANNELS 3 Xrotation Yrotation Zrotation
									JOINT LeftHandRing2
									{
										OFFSET 3.162567 0.000000 0.000000
										CHANNELS 3 Xrotation Yrotation Zrotation
										JOINT LeftHandRing3
										{
											OFFSET 3.324348 0.000000 0.000000
											CHANNELS 3 Xrotation Yrotation Zrotation
											End Site
											{
												OFFSET -0.861900 3.184998 0.405154
											}
										}
									}
								}
								JOINT LeftHandPinky1
								{
									OFFSET 13.131393 -0.168503 -5.746925
									CHANNELS 3 Xrotation Yrotation Zrotation
									JOINT LeftHandPinky2
									{
										OFFSET 2.849182 0.000000 0.000000
										CHANNELS 3 Xrotation Yrotation Zrotation
										JOINT LeftHandPinky3
										{
											OFFSET 2.805038 0.000000 0.000000
											CHANNELS 3 Xrotation Yrotation Zrotation
											End Site
											{
												OFFSET -0.882500 2.642609 0.325652
											}
										}
									}
								}
							}
							JOINT Left_Sleeve
							{
								OFFSET 6.592125 -0.646545 0.805568
								CHANNELS 3 Xrotation Yrotation Zrotation
								End Site
								{
									OFFSET -0.000179 20.275787 -0.000000
								}
							}
						}
					}
				}
				JOINT RightShoulder
				{
					OFFSET -5.731700 15.108002 -2.763700
					CHANNELS 3 Xrotation Yrotation Zrotation
					JOINT RightArm
					{
						OFFSET -9.825497 2.506317 -1.597400
						CHANNELS 3 Xrotation Yrotation Zrotation
						JOINT RightForeArm
						{
							OFFSET -21.966242 0.000000 0.000000
							CHANNELS 3 Xrotation Yrotation Zrotation
							JOINT RightHand
							{
								OFFSET -33.879032 0.000000 0.000000
								CHANNELS 3 Xrotation Yrotation Zrotation
								JOINT RightHandThumb1
								{
									OFFSET -6.715286 -2.359680 3.363841
									CHANNELS 3 Xrotation Yrotation Zrotation
									JOINT RightHandThumb2
									{
										OFFSET -2.507072 -1.447464 1.447461
										CHANNELS 3 Xrotation Yrotation Zrotation
										JOINT RightHandThumb3
										{
											OFFSET -2.898338 -1.673355 1.673357
											CHANNELS 3 Xrotation Yrotation Zrotation
											End Site
											{
												OFFSET 0.295959 3.727692 -0.131651
											}
										}
									}
								}
								JOINT RightHandIndex1
								{
									OFFSET -14.190811 -0.254547 3.840278
									CHANNELS 3 Xrotation Yrotation Zrotation
									JOINT RightHandIndex2
									{
										OFFSET -3.551727 0.000000 -0.000000
										CHANNELS 3 Xrotation Yrotation Zrotation
										JOINT RightHandIndex3
										{
											OFFSET -2.894196 0.000000 0.000000
											CHANNELS 3 Xrotation Yrotation Zrotation
											End Site
											{
												OFFSET 1.000603 2.690872 0.366626
											}
										}
									}
								}
								JOINT RightHandMiddle1
								{
									OFFSET -13.776489 0.000000 0.000000
									CHANNELS 3 Xrotation Yrotation Zrotation
									JOINT RightHandMiddle2
									{
										OFFSET -3.438232 0.000000 0.000000
										CHANNELS 3 Xrotation Yrotation Zrotation
										JOINT RightHandMiddle3
										{
											OFFSET -3.691551 0.000000 0.000000
											CHANNELS 3 Xrotation Yrotation Zrotation
											End Site
											{
												OFFSET 1.082298 3.499527 0.457670
											}
										}
									}
								}
								JOINT RightHandRing1
								{
									OFFSET -13.966164 -0.268127 -3.067488
									CHANNELS 3 Xrotation Yrotation Zrotation
									JOINT RightHandRing2
									{
										OFFSET -3.162567 0.000000 0.000000
										CHANNELS 3 Xrotation Yrotation Zrotation
										JOINT RightHandRing3
										{
											OFFSET -3.324348 0.000000 0.000000
											CHANNELS 3 Xrotation Yrotation Zrotation
											End Site
											{
												OFFSET 0.861900 3.184998 0.405154
											}
										}
									}
								}
								JOINT RightHandPinky1
								{
									OFFSET -13.131393 -0.168503 -5.746925
									CHANNELS 3 Xrotation Yrotation Zrotation
									JOINT RightHandPinky2
									{
										OFFSET -2.849182 0.000000 0.000000
										CHANNELS 3 Xrotation Yrotation Zrotation
										JOINT RightHandPinky3
										{
											OFFSET -2.805038 0.000000 0.000000
											CHANNELS 3 Xrotation Yrotation Zrotation
											End Site
											{
												OFFSET 0.882500 2.642609 0.325652
											}
										}
									}
								}
							}
							JOINT Right_Sleeve
							{
								OFFSET -6.592125 -0.646545 0.805568
								CHANNELS 3 Xrotation Yrotation Zrotation
								End Site
								{
									OFFSET 0.000179 20.275787 -0.000000
								}
							}
						}
					}
				}
				JOINT Bind_Right_JacketString
				{
					OFFSET -3.534800 11.969597 7.200700
					CHANNELS 3 Xrotation Yrotation Zrotation
					JOINT Bind_Right_JacketString1
					{
						OFFSET -0.319900 -6.102600 2.794100
						CHANNELS 3 Xrotation Yrotation Zrotation
						End Site
						{
							OFFSET 0.000000 6.719452 0.000000
						}
					}
				}
				JOINT Bind_Left_JacketString
				{
					OFFSET 2.904800 11.969597 7.200700
					CHANNELS 3 Xrotation Yrotation Zrotation
					JOINT Bind_Left_JacketString1
					{
						OFFSET 0.364800 -5.904503 3.186800
						CHANNELS 3 Xrotation Yrotation Zrotation
						End Site
						{
							OFFSET 0.000000 6.719513 0.000000
						}
					}
				}
				JOINT HairE
				{
					OFFSET 5.915200 17.612701 -11.592200
					CHANNELS 3 Xrotation Yrotation Zrotation
					JOINT HairE1
					{
						OFFSET 0.289200 -7.171898 -1.284500
						CHANNELS 3 Xrotation Yrotation Zrotation
						End Site
						{
							OFFSET 0.000000 7.291756 0.000000
						}
					}
				}
				JOINT HairF
				{
					OFFSET -0.864800 17.612701 -11.592200
					CHANNELS 3 Xrotation Yrotation Zrotation
					JOINT HairF1
					{
						OFFSET 0.000000 -14.087097 -2.127501
						CHANNELS 3 Xrotation Yrotation Zrotation
						End Site
						{
							OFFSET 0.000000 14.246841 0.000000
						}
					}
				}
				JOINT HairG
				{
					OFFSET -8.087700 17.612701 -11.592200
					CHANNELS 3 Xrotation Yrotation Zrotation
					JOINT HairG1
					{
						OFFSET -0.293600 -6.081398 -0.910100
						CHANNELS 3 Xrotation Yrotation Zrotation
						End Site
						{
							OFFSET 0.000000 6.156120 0.000000
						}
					}
				}
			}
		}
	}
	JOINT Pouch
	{
		OFFSET 0.000000 4.394501 10.847300
		CHANNELS 3 Xrotation Yrotation Zrotation
		End Site
		{
			OFFSET 0.000000 21.880577 0.000000
		}
	}
	JOINT Bag
	{
		OFFSET -13.229000 4.813004 -0.593300
		CHANNELS 3 Xrotation Yrotation Zrotation
		End Site
		{
			OFFSET 0.000000 21.880577 0.000000
		}
	}
	JOINT OccupyGuyFacialAnim_Joint
	{
		OFFSET 1.000000 -70.206398 -1.655000
		CHANNELS 3 Xrotation Yrotation Zrotation
		End Site
		{
			OFFSET 0.000000 21.880577 0.000000
		}
	}
}
MOTION
Frames: 4
Frame Time: 0.033333
-1.644928 68.768097 -1.481952 -0.101484 -2.401670 0.552177 -0.000000 -0.000000 -0.000000 -14.740650 9.792828 11.432155 39.633542 -1.700362 -4.928640 -18.053676 -0.831842 -3.867115 0.000000 0.000000 -0.000000 -0.000001 0.000000 0.000000 -23.004839 -0.099539 -6.162719 55.425848 -0.346423 0.787752 -23.283222 -10.365464 8.381803 -0.000001 -0.000001 -0.000000 0.000003 0.000000 -0.000001 5.263725 -0.132010 0.197519 10.432257 -0.241257 0.539005 10.432670 -0.229796 0.538535 6.360157 2.032983 -9.424136 1.419796 5.941763 -6.001858 0.000004 0.000001 -0.000000 0.000004 0.000001 -0.000000 0.000004 0.000001 -0.000000 0.000004 0.000001 -0.000000 -0.000001 0.000001 -0.000000 0.000004 0.000001 -0.000000 -0.000001 0.000001 -0.000000 0.000004 0.000001 -0.000000 0.000004 0.000001 -0.000000 1.303258 -7.908459 -19.133407 7.837118 18.605133 -49.437336 0.000025 -66.815868 0.000024 -4.985728 -8.979247 8.684289 4.594789 15.084809 -0.561394 4.616235 23.214969 0.392629 0.000001 -0.000000 -0.000003 -1.845145 -3.073854 -22.911567 0.013395 0.430155 -3.566775 0.000001 -0.000003 0.000001 -1.036167 -2.391898 -17.137484 0.257022 1.867236 -15.672921 0.000001 0.000002 -0.000003 -1.035587 -2.390065 -17.153417 0.256482 1.865390 -15.656914 -0.000003 0.000000 -0.000004 0.142375 1.489413 -16.633739 0.255094 -2.191185 -16.148924 -0.000003 -0.000001 0.000003 -0.000000 -0.000002 0.000002 1.192420 5.689668 11.332496 -4.070016 -6.342217 65.381972 -0.000003 40.018406 0.000014 1.632472 -4.963657 -10.542237 -0.191204 -11.367843 2.695966 4.575457 -32.143676 -2.186891 0.000000 0.000002 -0.000000 -1.035056 2.849305 15.594973 0.000002 -0.000001 0.000005 -0.000001 -0.000001 -0.000002 -0.368050 0.886889 12.693101 0.364283 -2.225153 18.592581 -0.000001 -0.000001 -0.000001 -0.368050 0.886900 12.693098 0.364280 -2.225159 18.592564 0.000000 -0.000001 -0.000001 -0.368053 0.886892 12.693107 0.364282 -2.225158 18.592562 -0.000000 -0.000001 -0.000001 0.000000 0.000000 -0.000000 0.000000 0.000000 0.000000 0.000000 0.000000 0.000000 0.000000 0.000000 0.000000 0.000000 0.000000 0.000000 0.000000 0.000000 0.000000 0.000000 0.000000 0.000000 0.000000 0.000000 0.000000 0.000000 0.000000 0.000000 0.000000 0.000000 0.000000 0.000000 0.000000 0.000000 -0.000000 -0.000000 -0.000000 -0.000000 -0.000000 -0.000000 -0.000000 -0.000000 -0.000000 
-2.414998 70.870682 -1.435770 0.285640 0.158889 1.331438 -0.000000 0.000000 0.000000 -13.673232 10.828428 11.248997 33.587141 -1.771817 -4.374548 -9.156568 -5.889367 -4.255198 0.000000 -0.000001 -0.000000 -0.000001 0.000000 0.000000 -20.888238 -0.892984 -6.857477 48.735742 -0.113811 0.650455 -17.853875 -1.482713 11.646309 0.000000 -0.000000 0.000000 -0.000001 -0.000000 -0.000001 4.941993 -0.260963 0.454657 9.608421 -0.527788 0.419649 9.609014 -0.515932 0.420928 7.108665 2.030875 -9.652355 0.800193 6.353142 -6.570222 0.000000 0.000000 -0.000001 0.000000 0.000000 -0.000001 0.000000 0.000000 -0.000001 0.000000 0.000000 -0.000001 -0.000001 0.000001 -0.000001 0.000000 0.000000 -0.000001 -0.000001 0.000001 -0.000001 0.000000 0.000000 -0.000001 0.000000 0.000000 -0.000001 1.298723 -8.147255 -19.331360 7.330899 17.371181 -49.121416 -0.000012 -68.421850 -0.000025 -4.730880 -9.340006 7.236472 4.796009 15.143479 -0.656362 4.725185 23.081733 0.312336 0.000001 -0.000000 -0.000004 -1.778331 -3.032461 -22.473056 0.014013 0.439748 -3.646563 0.000004 -0.000005 0.000003 -1.034464 -2.242079 -17.666491 0.260740 1.880482 -15.786903 0.000000 0.000001 -0.000001 -1.033888 -2.240254 -17.682446 0.260213 1.878633 -15.770888 0.000001 0.000002 0.000002 0.179922 1.628182 -17.165539 0.258936 -2.177990 -16.262629 -0.000001 -0.000003 -0.000001 0.000001 0.000000 0.000000 1.181226 5.643323 11.723303 -3.230400 -8.910809 65.683341 0.000007 39.679523 -0.000006 0.199475 -5.589230 -10.580732 0.859403 -12.469663 2.433766 4.297325 -32.282633 -2.477717 0.000001 0.000000 -0.000001 -1.045805 2.823664 15.797372 0.000002 0.000003 -0.000006 -0.000000 0.000001 0.000000 -0.299938 0.585983 12.643129 0.366318 -2.231197 18.644968 0.000001 -0.000000 0.000003 -0.299937 0.585994 12.643126 0.366315 -2.231196 18.644960 0.000001 -0.000000 -0.000001 -0.299940 0.585984 12.643139 0.366320 -2.231198 18.644955 0.000000 0.000001 0.000001 0.000000 -0.000001 -0.000000 0.000000 0.000000 0.000000 0.000000 0.000000 0.000000 0.000000 0.000000 0.000000 0.000000 0.000000 0.000000 0.000000 0.000000 0.000000 0.000000 0.000000 0.000000 0.000000 0.000000 0.000000 0.000000 0.000000 0.000000 0.000000 0.000000 0.000000 0.000000 0.000000 0.000000 -0.000000 0.000000 0.000000 -0.000000 0.000000 0.000000 -0.000000 0.000000 0.000000 
-3.242753 72.366257 -1.480890 0.397864 3.107529 2.016981 -0.000000 -0.000000 -0.000000 -16.857530 9.707016 13.631727 35.126276 -2.845994 -5.086904 -0.375362 -8.136805 -8.007428 0.000001 -0.000000 -0.000000 -0.000002 -0.000002 -0.000001 -18.695915 -2.475906 -7.252809 41.351734 -0.163310 0.515296 -10.128874 2.884761 7.198809 0.000001 0.000000 0.000000 0.000003 -0.000000 -0.000000 4.844105 -0.218062 0.880488 9.318385 -0.531736 0.287268 9.318887 -0.520269 0.289486 7.341150 2.159919 -9.918845 -0.190390 6.511134 -6.603783 0.000000 0.000001 -0.000000 0.000000 0.000001 -0.000000 0.000000 0.000001 -0.000001 0.000000 0.000001 -0.000000 -0.000001 -0.000001 0.000002 0.000000 0.000001 -0.000000 -0.000001 -0.000001 0.000002 0.000000 0.000001 -0.000000 0.000000 0.000001 -0.000000 1.275154 -8.634118 -19.966738 6.602957 15.675400 -47.857486 0.000015 -70.152818 0.000030 -5.059265 -9.512423 5.342173 4.863724 15.163028 -0.688393 4.820952 22.943994 0.255549 -0.000001 0.000003 0.000001 -1.706241 -2.923413 -22.213066 0.014157 0.442340 -3.668083 0.000003 -0.000004 0.000001 -1.022713 -2.120265 -17.987909 0.261727 1.883961 -15.816935 -0.000001 0.000003 -0.000001 -1.022111 -2.118423 -18.003844 0.261194 1.882106 -15.800917 -0.000002 0.000001 0.000000 0.213438 1.743101 -17.489388 0.259947 -2.174498 -16.292573 0.000000 -0.000002 0.000003 0.000000 -0.000005 0.000001 1.160265 5.546905 12.487920 -2.728782 -10.949081 64.866771 -0.000005 39.579491 -0.000010 -0.677381 -6.286142 -10.464646 1.731283 -13.047546 2.426081 4.039992 -32.421535 -2.748612 0.000001 -0.000003 0.000000 -1.049696 2.742980 16.096162 0.000001 -0.000002 -0.000009 0.000001 0.000000 0.000002 -0.255813 0.347637 12.884949 0.368370 -2.237252 18.697511 0.000001 0.000000 -0.000002 -0.255810 0.347649 12.884940 0.368364 -2.237262 18.697535 0.000000 -0.000000 0.000001 -0.255815 0.347637 12.884944 0.368369 -2.237256 18.697518 0.000001 -0.000001 0.000000 -0.000000 -0.000000 0.000001 0.000001 0.000000 0.000000 -0.000001 0.000000 -0.000000 0.000001 0.000000 0.000000 0.000001 0.000000 0.000000 0.000001 0.000000 0.000000 -0.000001 0.000000 -0.000000 0.000001 0.000000 0.000000 0.000001 0.000000 0.000000 0.000001 0.000000 0.000000 -0.000001 0.000000 -0.000000 -0.000000 -0.000000 -0.000000 -0.000000 -0.000000 -0.000000 -0.000000 -0.000000 -0.000000 
-4.286822 73.012939 -1.513539 -0.095915 5.771880 2.993366 0.000000 0.000000 0.000000 -20.818736 6.603224 17.149842 38.333197 -2.223166 -6.011028 10.286496 -7.051800 -16.091132 0.000001 -0.000002 0.000001 -0.000001 0.000000 -0.000000 -16.592249 -4.043476 -7.416756 35.961287 -0.687431 0.389902 -4.106214 0.294267 -1.634930 -0.000000 0.000000 -0.000000 -0.000001 0.000000 -0.000000 5.002525 -0.098001 0.869752 9.681114 -0.331773 0.142671 9.681375 -0.323321 0.144121 6.963779 2.399358 -10.181032 -1.020983 6.597945 -6.473167 0.000001 0.000000 0.000000 0.000001 0.000000 0.000000 0.000001 0.000000 -0.000000 0.000001 0.000000 0.000002 0.000001 0.000000 0.000002 0.000001 0.000000 0.000002 0.000001 0.000000 0.000002 0.000001 0.000000 0.000000 0.000001 0.000000 0.000000 1.244784 -9.004331 -20.571176 6.019610 14.341111 -46.291296 0.000073 -72.014926 0.000056 -5.503962 -9.548799 4.048100 4.859022 15.161695 -0.686117 4.787321 22.979953 0.284283 -0.000001 -0.000000 -0.000003 -1.690921 -2.780807 -22.589107 0.014001 0.439928 -3.647771 0.000001 -0.000009 0.000006 -1.019390 -2.067387 -18.154315 0.261516 1.883166 -15.810032 -0.000002 0.000000 -0.000001 -1.018781 -2.065577 -18.170265 0.260966 1.881319 -15.794036 -0.000002 0.000002 -0.000003 0.228011 1.792346 -17.656871 0.259710 -2.175286 -16.285731 -0.000002 -0.000001 -0.000001 0.000003 -0.000001 0.000001 1.138165 5.427998 13.392386 -2.773252 -12.114271 63.252722 -0.000011 39.904373 0.000031 -0.948859 -7.285749 -10.970561 2.093651 -13.323381 2.376307 3.750312 -32.593393 -3.056344 0.000000 -0.000001 -0.000000 -1.031272 2.544438 16.533117 -0.000002 -0.000001 -0.000002 0.000000 -0.000001 0.000002 -0.236223 0.175475 13.480494 0.370951 -2.244882 18.763728 0.000001 0.000000 0.000001 -0.236222 0.175485 13.480485 0.370955 -2.244887 18.763742 0.000001 -0.000001 -0.000001 -0.236227 0.175478 13.480485 0.370956 -2.244887 18.763737 -0.000000 0.000001 -0.000001 0.000000 -0.000002 0.000001 -0.000001 -0.000000 -0.000000 -0.000001 0.000000 -0.000000 -0.000001 -0.000000 -0.000000 -0.000001 -0.000000 -0.000000 -0.000001 -0.000000 -0.000000 -0.000001 0.000000 -0.000000 -0.000001 -0.000000 -0.000000 -0.000001 -0.000000 -0.000000 -0.000001 -0.000000 -0.000000 -0.000001 0.000000 -0.000000 0.000000 0.000000 0.000000 0.000000 0.000000 0.000000 0.000000 0.000000 0.000000 
